HIERARCHY
ROOT Hips
{
	OFFSET 0.000000 0.000000 0.000000
	CHANNELS 6 Xposition Yposition Zposition Zrotation Yrotation Xrotation 
	JOINT LHipJoint
	{
		OFFSET 0.000000 0.000000 0.000000
		CHANNELS 3 Zrotation Yrotation Xrotation
		JOINT LeftUpLeg
		{
			OFFSET 1.363060 -1.794630 0.839290
			CHANNELS 3 Zrotation Yrotation Xrotation
			JOINT LeftLeg
			{
				OFFSET 2.448110 -6.726130 0.000000
				CHANNELS 3 Zrotation Yrotation Xrotation
				JOINT LeftFoot
				{
					OFFSET 2.562200 -7.039590 0.000000
					CHANNELS 3 Zrotation Yrotation Xrotation
					JOINT LeftToeBase
					{
						OFFSET 0.157640 -0.433110 2.322550
						CHANNELS 3 Zrotation Yrotation Xrotation
						End Site
						{
							OFFSET 0.000000 0.000000 0.000000
						}
					}
				}
			}
		}
	}
	JOINT RHipJoint
	{
		OFFSET 0.000000 0.000000 0.000000
		CHANNELS 3 Zrotation Yrotation Xrotation
		JOINT RightUpLeg
		{
			OFFSET -1.305520 -1.794630 0.839290
			CHANNELS 3 Zrotation Yrotation Xrotation
			JOINT RightLeg
			{
				OFFSET -2.542530 -6.985550 0.000000
				CHANNELS 3 Zrotation Yrotation Xrotation
				JOINT RightFoot
				{
					OFFSET -2.568260 -7.056230 0.000000
					CHANNELS 3 Zrotation Yrotation Xrotation
					JOINT RightToeBase
					{
						OFFSET -0.164730 -0.452590 2.363150
						CHANNELS 3 Zrotation Yrotation Xrotation
						End Site
						{
							OFFSET 0.000000 0.000000 0.000000
						}
					}
				}
			}
		}
	}
	JOINT LowerBack
	{
		OFFSET 0.000000 0.000000 0.000000
		CHANNELS 3 Zrotation Yrotation Xrotation
		JOINT Spine
		{
			OFFSET 0.028270 2.035590 -0.193380
			CHANNELS 3 Zrotation Yrotation Xrotation
			JOINT Spine1
			{
				OFFSET 0.056720 2.048850 -0.042750
				CHANNELS 3 Zrotation Yrotation Xrotation
				JOINT Neck
				{
					OFFSET 0.000000 0.000000 0.000000
					CHANNELS 3 Zrotation Yrotation Xrotation
					JOINT Neck1
					{
						OFFSET -0.054170 1.746240 0.172020
						CHANNELS 3 Zrotation Yrotation Xrotation
						JOINT Head
						{
							OFFSET 0.104070 1.761360 -0.123970
							CHANNELS 3 Zrotation Yrotation Xrotation
							End Site
							{
								OFFSET 0.000000 0.000000 0.000000
							}
						}
					}
				}
				JOINT LeftShoulder
				{
					OFFSET 0.000000 0.000000 0.000000
					CHANNELS 3 Zrotation Yrotation Xrotation
					JOINT LeftArm
					{
						OFFSET 3.362410 1.200890 -0.311210
						CHANNELS 3 Zrotation Yrotation Xrotation
						JOINT LeftForeArm
						{
							OFFSET 4.983000 -0.000000 -0.000000
							CHANNELS 3 Zrotation Yrotation Xrotation
							JOINT LeftHand
							{
								OFFSET 3.483560 -0.000000 -0.000000
								CHANNELS 3 Zrotation Yrotation Xrotation
								JOINT LeftFingerBase
								{
									OFFSET 0.000000 0.000000 0.000000
									CHANNELS 3 Zrotation Yrotation Xrotation
									JOINT LeftHandIndex1
									{
										OFFSET 0.715260 -0.000000 -0.000000
										CHANNELS 3 Zrotation Yrotation Xrotation
										End Site
										{
											OFFSET 0.000000 0.000000 0.000000
										}
									}
								}
								JOINT LThumb
								{
									OFFSET 0.000000 0.000000 0.000000
									CHANNELS 3 Zrotation Yrotation Xrotation
									End Site
									{
										OFFSET 0.000000 0.000000 0.000000
									}
								}
							}
						}
					}
				}
				JOINT RightShoulder
				{
					OFFSET 0.000000 0.000000 0.000000
					CHANNELS 3 Zrotation Yrotation Xrotation
					JOINT RightArm
					{
						OFFSET -3.136600 1.374050 -0.404650
						CHANNELS 3 Zrotation Yrotation Xrotation
						JOINT RightForeArm
						{
							OFFSET -5.241900 -0.000000 -0.000000
							CHANNELS 3 Zrotation Yrotation Xrotation
							JOINT RightHand
							{
								OFFSET -3.444170 -0.000000 -0.000000
								CHANNELS 3 Zrotation Yrotation Xrotation
								JOINT RightFingerBase
								{
									OFFSET 0.000000 0.000000 0.000000
									CHANNELS 3 Zrotation Yrotation Xrotation
									JOINT RightHandIndex1
									{
										OFFSET -0.622530 -0.000000 -0.000000
										CHANNELS 3 Zrotation Yrotation Xrotation
										End Site
										{
											OFFSET 0.000000 0.000000 0.000000
										}
									}
								}
								JOINT RThumb
								{
									OFFSET 0.000000 0.000000 0.000000
									CHANNELS 3 Zrotation Yrotation Xrotation
									End Site
									{
										OFFSET 0.000000 0.000000 0.000000
									}
								}
							}
						}
					}
				}
			}
		}
	}
}
MOTION
Frames: 5
Frame Time: 0.008333
18.346553 16.055588 -16.863005 -114.695837 -82.126716 118.985443 -0.347509 -3.664060 -1.896331 -13.148865 9.536443 -12.358869 20.330862 21.436662 90.938322 -2.888303 13.064265 0.207353 0.001100 0.214900 0.590600 -4.282153 3.287128 -4.026564 21.264216 -1.632180 -26.436743 -7.318742 -18.479893 53.644286 -1.054142 -0.016622 -18.475700 -0.655400 5.178200 -14.417700 12.491752 -2.840403 20.107095 1.200311 -1.767991 -1.053445 -3.236466 -0.609746 -0.135075 -0.443941 14.567740 -17.442370 -7.779079 20.377385 8.143157 -4.415900 7.328200 14.211200 -7.901753 -3.558695 -0.772078 -65.873076 9.090134 54.171966 34.070897 -46.548910 -16.478745 -0.855366 -0.572888 -19.583841 28.574171 -2.866119 -1.448800 -7.125000 0.000000 0.000000 2.281600 27.041700 -0.995600 13.686177 2.611093 0.117309 40.365997 -14.287494 50.997578 -37.900460 46.228136 -19.469176 0.458723 1.823911 -6.691256 -8.023512 -15.244821 2.558900 7.125000 0.000000 0.000000 18.046200 -46.332400 -0.613100 
17.702814 16.087764 -16.861929 -109.058051 -81.615164 113.145942 -0.218167 -3.945292 -2.300639 -11.413081 8.874282 -18.093077 21.626954 21.216282 94.743107 -2.452644 11.201011 -1.139993 0.004600 0.438700 1.205400 -4.270322 3.260745 -3.914105 22.268373 -2.277636 -22.744008 -6.873882 -18.135065 52.149963 -1.145575 -0.430933 -20.112267 -0.504700 4.554200 -12.641300 12.994146 -2.280860 20.333324 1.223064 -0.917237 -1.083268 -3.325966 -0.175993 -0.298228 -0.188327 14.242743 -17.105926 -7.523225 19.803564 8.538610 -4.509300 7.145300 14.302100 -7.915786 -3.559255 -0.842380 -65.429675 11.751856 54.934292 32.733250 -45.958633 -15.638156 -0.885190 -0.633179 -19.127392 28.740642 -2.820941 -1.399200 -7.125000 0.000000 0.000000 2.449100 27.160100 -1.062000 13.776509 2.625959 0.093148 40.152865 -12.084356 50.657963 -37.688223 45.913105 -19.118805 0.606455 1.687312 -5.339930 -10.366518 -14.746995 3.171600 7.125000 0.000000 0.000000 15.622100 -46.025700 -0.405300 
17.039275 16.153085 -16.846648 -103.734732 -81.279061 107.538291 -0.042792 -4.245473 -2.779990 -10.392425 8.168530 -23.406885 22.174814 21.052858 96.245059 -2.391183 10.852676 -2.053071 0.023900 0.997600 2.742300 -4.258083 3.218621 -3.810617 23.110928 -3.416474 -18.695488 -6.187242 -17.543921 49.783035 -0.933742 -2.337070 -21.128805 -0.545600 4.732100 -13.146100 13.363370 -1.632236 20.389880 1.141291 -0.041146 -1.066879 -3.672848 0.298657 0.005262 -0.434900 13.809376 -17.711708 -6.522585 19.239130 9.230517 -3.979100 6.929300 14.573400 -7.972203 -3.475459 -0.923599 -64.023531 14.268863 56.254322 32.888979 -46.249814 -15.841348 -0.816045 -0.852265 -19.328878 26.600304 -1.022881 -0.221800 -7.125000 0.000000 0.000000 0.855300 29.501400 -0.323300 13.728996 2.659191 0.020227 40.701098 -10.618009 49.366279 -39.001100 46.485494 -20.022974 0.638893 1.608087 -4.969179 -10.837346 -14.670671 3.283000 7.125000 0.000000 0.000000 15.131300 -45.935500 -0.357500 
16.350339 16.273826 -16.815979 -97.278812 -81.234521 101.053803 0.130291 -4.566261 -3.286287 -10.237775 7.114131 -28.406260 21.884266 21.046965 95.410351 -2.338607 10.604005 -4.559773 0.016600 -0.833100 -2.289600 -4.239721 3.165359 -3.695182 23.577260 -4.771744 -14.349319 -5.239822 -16.604646 46.248169 -0.807241 -3.308545 -21.538845 -0.766300 5.590000 -15.599300 13.376915 -0.988780 20.033193 1.024015 0.692940 -1.069884 -4.008326 0.715313 0.461347 -0.511283 13.268828 -18.427489 -5.977402 18.501581 9.645195 -3.763900 6.612100 14.794900 -7.997833 -3.348912 -0.976739 -62.129322 16.760942 57.990890 33.901644 -47.076611 -16.687739 -0.662976 -0.798628 -19.023103 24.957297 -4.638223 -1.943700 -7.125000 0.000000 0.000000 -0.594300 25.517900 0.280300 13.647457 2.624001 -0.051831 41.227399 -10.105862 47.883107 -41.784308 47.825619 -22.250333 0.557360 1.704785 -5.100944 -8.846604 -16.049161 2.927300 7.125000 0.000000 0.000000 17.525000 -47.105800 -0.938500 
15.627720 16.418135 -16.771319 -91.278746 -81.119230 95.315532 0.265411 -4.811154 -3.705423 -10.239809 5.720465 -32.316471 20.825053 21.152301 92.378407 -2.126266 9.900397 -6.709102 0.002400 0.318800 0.876000 -4.261520 3.117713 -3.616989 24.000755 -5.811388 -9.810087 -4.217502 -15.451432 42.112980 -0.731177 -3.303036 -20.826061 -1.105200 6.679600 -18.769700 13.114504 -0.282201 19.160290 0.954735 1.390929 -1.091401 -4.044295 1.103778 1.007238 -0.380343 12.861313 -18.987142 -6.045654 17.986649 9.956788 -3.956900 6.345800 15.112600 -7.941866 -3.207317 -1.002413 -60.400334 19.287218 59.829219 35.094706 -48.028723 -17.694836 -0.510008 -0.826544 -17.885782 22.852738 -6.469237 -2.508800 -7.125000 0.000000 0.000000 -2.308200 23.702600 1.186600 13.615759 2.528586 -0.112376 41.508489 -9.869932 47.741889 -45.051624 49.276202 -24.803555 0.588045 1.706101 -9.058420 -10.394011 -16.621404 3.551700 7.125000 0.000000 0.000000 16.168000 -47.822800 -1.154500 
